<svg xmlns="http://www.w3.org/2000/svg" width="800" height="450" viewBox="0 0 800 450">
  <defs>
    <linearGradient id="bg" x1="0%" y1="0%" x2="100%" y2="100%">
      <stop offset="0%" style="stop-color:#0d2818"/>
      <stop offset="50%" style="stop-color:#1a4a2e"/>
      <stop offset="100%" style="stop-color:#0d2818"/>
    </linearGradient>
    <linearGradient id="accent" x1="0%" y1="0%" x2="100%" y2="100%">
      <stop offset="0%" style="stop-color:#3dd68c"/>
      <stop offset="100%" style="stop-color:#1fba60"/>
    </linearGradient>
  </defs>
  <rect width="800" height="450" fill="url(#bg)"/>
  <circle cx="650" cy="80" r="180" fill="rgba(61,214,140,0.07)"/>
  <circle cx="150" cy="380" r="140" fill="rgba(61,214,140,0.05)"/>
  <rect x="50" y="50" width="700" height="2" rx="1" fill="rgba(61,214,140,0.15)"/>
  <rect x="50" y="398" width="700" height="2" rx="1" fill="rgba(61,214,140,0.15)"/>
  <g transform="translate(400,200)">
    <rect x="-60" y="-60" width="120" height="120" rx="16" fill="url(#accent)" opacity="0.15"/>
    <path d="M-25-20 L-10 10 L5-15 L20 15" stroke="#3dd68c" stroke-width="3" fill="none" stroke-linecap="round" stroke-linejoin="round"/>
    <path d="M-40 25 L-25 25" stroke="#3dd68c" stroke-width="3" fill="none" stroke-linecap="round"/>
    <path d="M15 25 L35 25" stroke="#3dd68c" stroke-width="3" fill="none" stroke-linecap="round"/>
    <path d="M-20 35 L-10 35" stroke="rgba(61,214,140,0.5)" stroke-width="2" fill="none" stroke-linecap="round"/>
    <path d="M5 35 L25 35" stroke="rgba(61,214,140,0.5)" stroke-width="2" fill="none" stroke-linecap="round"/>
  </g>
  <text x="50" y="310" font-family="Inter, sans-serif" font-size="28" font-weight="800" fill="#3dd68c" letter-spacing="-0.02">Founder-Market Fit</text>
  <text x="50" y="342" font-family="Inter, sans-serif" font-size="16" font-weight="400" fill="rgba(200,205,216,0.7)" letter-spacing="0.02">The Hidden Variable Investors Back</text>
</svg>
