<svg xmlns="http://www.w3.org/2000/svg" viewBox="0 0 64 64" role="img" aria-label="QVSCL">
  <rect width="64" height="64" rx="12" fill="#06100c"/>
  <circle cx="32" cy="32" r="19" fill="#06bf4f" opacity="0.18"/>
  <path d="M18 32c0-8.4 6.2-14.5 14.1-14.5 7.8 0 13.9 6.1 13.9 14.2 0 4.3-1.6 8.1-4.3 10.7l5.4 5.2-6.5 1.2-3.5-3.5a15.7 15.7 0 0 1-5.2.9C24.1 46.2 18 40.2 18 32Zm8.4 0c0 3.8 2.4 6.5 5.8 6.5s5.7-2.7 5.7-6.6c0-3.8-2.4-6.5-5.8-6.5s-5.7 2.7-5.7 6.6Z" fill="#fff"/>
  <path d="M12 37c12.5-10.5 25.4-15.4 40-15" fill="none" stroke="#06bf4f" stroke-width="5" stroke-linecap="round"/>
</svg>
